<svg width="303" height="236" viewBox="0 0 303 236" fill="none" xmlns="http://www.w3.org/2000/svg">
<path d="M289.174 224.841H13.3705C10.1645 224.837 7.09081 223.562 4.82379 221.295C2.55677 219.028 1.28153 215.955 1.27783 212.749V19.9208C1.2814 16.7147 2.55657 13.641 4.82361 11.3739C7.09065 9.10688 10.1644 7.83169 13.3705 7.82812H289.174C292.38 7.83182 295.453 9.10707 297.72 11.3741C299.987 13.6411 301.262 16.7148 301.266 19.9208V212.749C301.262 215.955 299.987 219.028 297.72 221.295C295.453 223.562 292.38 224.837 289.174 224.841V224.841Z" fill="white"/>
<path d="M289.396 225.314H13.5928C9.98915 225.31 6.53427 223.877 3.98602 221.329C1.43778 218.781 0.00426665 215.326 0 211.722V18.8935C0.00416076 15.2898 1.43765 11.8349 3.9859 9.28677C6.53415 6.73861 9.98907 5.3053 13.5928 5.30127H289.396C293 5.30541 296.454 6.73878 299.003 9.28693C301.551 11.8351 302.984 15.2899 302.988 18.8935V211.722C302.984 215.326 301.551 218.78 299.003 221.328C296.454 223.877 293 225.31 289.396 225.314V225.314ZM13.5928 8.30127C10.7844 8.30435 8.09199 9.42129 6.10614 11.407C4.12029 13.3928 3.00321 16.0852 3 18.8935V211.722C3.0034 214.53 4.12056 217.223 6.10638 219.208C8.09221 221.194 10.7845 222.311 13.5928 222.314H289.396C292.204 222.311 294.897 221.194 296.882 219.208C298.868 217.223 299.985 214.53 299.988 211.722V18.8935C299.985 16.0852 298.868 13.3929 296.882 11.4071C294.897 9.42134 292.204 8.30437 289.396 8.30127H13.5928Z" fill="#F2F2F2"/>
<path d="M192.273 19.8574H110.716C105.545 19.8515 100.588 17.7949 96.9316 14.1387C93.2754 10.4825 91.2187 5.52525 91.2129 0.354584V0H211.776V0.354584C211.77 5.52525 209.713 10.4825 206.057 14.1387C202.401 17.7949 197.443 19.8515 192.273 19.8574V19.8574Z" fill="#E6E6E6"/>
<path d="M192.338 235.686H110.781C105.61 235.68 100.653 233.623 96.9966 229.967C93.3404 226.311 91.2837 221.353 91.2778 216.183V215.828H211.841V216.183C211.835 221.353 209.778 226.311 206.122 229.967C202.466 233.623 197.508 235.68 192.338 235.686V235.686Z" fill="#E6E6E6"/>
<path d="M43.9868 124.008C43.8468 124.008 43.6268 123.998 43.3268 123.978C43.0268 123.958 42.7068 123.938 42.3668 123.918C42.0268 123.898 41.7068 123.878 41.4068 123.858C41.1068 123.838 40.8868 123.828 40.7468 123.828H37.8368C37.6968 123.828 37.4768 123.838 37.1768 123.858C36.8768 123.878 36.5568 123.898 36.2168 123.918C35.8968 123.938 35.5868 123.958 35.2868 123.978C34.9868 123.998 34.7668 124.008 34.6268 124.008L34.5668 123.888L34.6568 122.748L34.8068 122.628C35.1068 122.628 35.4568 122.618 35.8568 122.598C36.2768 122.578 36.5768 122.488 36.7568 122.328C36.9168 122.188 37.0768 122.008 37.2368 121.788C37.3968 121.568 37.5068 121.178 37.5668 120.618C37.5868 120.478 37.5968 120.318 37.5968 120.138C37.6168 119.938 37.6268 119.698 37.6268 119.418C37.6468 119.138 37.6568 118.798 37.6568 118.398C37.6568 117.998 37.6568 117.498 37.6568 116.898V111.408C37.6568 110.308 37.6468 109.328 37.6268 108.468C37.6068 107.608 37.5868 106.968 37.5668 106.548H37.2368C36.4768 106.548 35.8468 106.558 35.3468 106.578C34.8468 106.578 34.4468 106.598 34.1468 106.638C33.8468 106.658 33.6168 106.688 33.4568 106.728C33.3168 106.768 33.2168 106.818 33.1568 106.878C32.9368 106.978 32.7568 107.138 32.6168 107.358C32.4768 107.578 32.3868 107.838 32.3468 108.138L32.2268 108.258H30.9368L31.1468 104.238L31.2668 103.968L31.4468 103.878C31.6068 103.938 31.9568 103.998 32.4968 104.058C33.0368 104.098 33.6268 104.128 34.2668 104.148C34.9068 104.168 35.5168 104.188 36.0968 104.208C36.6968 104.208 37.1268 104.208 37.3868 104.208H41.1668C41.4268 104.208 41.8468 104.208 42.4268 104.208C43.0268 104.188 43.6468 104.168 44.2868 104.148C44.9268 104.128 45.5168 104.098 46.0568 104.058C46.5968 103.998 46.9468 103.938 47.1068 103.878L47.2868 103.968L47.4068 104.238L47.6468 108.258H46.3268L46.2068 108.138C46.1668 107.838 46.0768 107.578 45.9368 107.358C45.7968 107.138 45.6168 106.978 45.3968 106.878C45.3368 106.798 45.2268 106.738 45.0668 106.698C44.9268 106.638 44.7068 106.598 44.4068 106.578C44.1068 106.558 43.7068 106.548 43.2068 106.548C42.7268 106.548 42.1068 106.548 41.3468 106.548H41.0168C40.9968 107.028 40.9768 107.668 40.9568 108.468C40.9568 109.268 40.9568 110.238 40.9568 111.378V116.298C40.9568 117.018 40.9568 117.608 40.9568 118.068C40.9568 118.508 40.9568 118.878 40.9568 119.178C40.9768 119.478 40.9868 119.738 40.9868 119.958C41.0068 120.158 41.0268 120.378 41.0468 120.618C41.0868 121.198 41.1968 121.598 41.3768 121.818C41.5568 122.038 41.7268 122.208 41.8868 122.328C41.9668 122.408 42.0768 122.468 42.2168 122.508C42.3768 122.548 42.5468 122.578 42.7268 122.598C42.9068 122.618 43.0868 122.628 43.2668 122.628C43.4668 122.628 43.6468 122.628 43.8068 122.628L43.9568 122.748L44.0468 123.888L43.9868 124.008ZM56.3534 123.948C56.2134 123.948 56.0034 123.938 55.7234 123.918C55.4434 123.898 55.1434 123.878 54.8234 123.858C54.5034 123.858 54.2034 123.848 53.9234 123.828C53.6434 123.828 53.4334 123.828 53.2934 123.828H51.6734C51.5334 123.828 51.3134 123.828 51.0134 123.828C50.7334 123.848 50.4334 123.858 50.1134 123.858C49.8134 123.878 49.5134 123.898 49.2134 123.918C48.9334 123.938 48.7234 123.948 48.5834 123.948L48.5534 123.828L48.6134 122.808L48.7034 122.688C49.0034 122.688 49.3134 122.678 49.6334 122.658C49.9534 122.618 50.1934 122.518 50.3534 122.358C50.4934 122.218 50.5934 122.038 50.6534 121.818C50.7134 121.598 50.7634 121.288 50.8034 120.888C50.8234 120.748 50.8334 120.608 50.8334 120.468C50.8534 120.328 50.8634 120.178 50.8634 120.018C50.8834 119.858 50.8934 119.668 50.8934 119.448C50.8934 119.228 50.8934 118.958 50.8934 118.638V115.248C50.8934 114.868 50.8934 114.568 50.8934 114.348C50.8934 114.108 50.8834 113.908 50.8634 113.748C50.8634 113.588 50.8534 113.448 50.8334 113.328C50.8334 113.188 50.8234 113.028 50.8034 112.848C50.7634 112.648 50.7034 112.458 50.6234 112.278C50.5434 112.098 50.4734 111.978 50.4134 111.918C50.2134 111.658 49.9634 111.508 49.6634 111.468C49.3634 111.428 49.0534 111.408 48.7334 111.408L48.6134 111.288V110.268L48.7334 110.178H50.2634C50.7234 110.178 51.2134 110.178 51.7334 110.178C52.2534 110.158 52.7134 110.118 53.1134 110.058L54.1634 109.908L54.3434 110.478C54.3034 110.558 54.2634 110.688 54.2234 110.868C54.2034 111.028 54.1834 111.208 54.1634 111.408C54.1634 111.588 54.1534 111.778 54.1334 111.978C54.1334 112.158 54.1334 112.308 54.1334 112.428C54.1334 112.588 54.1234 112.738 54.1034 112.878C54.1034 112.998 54.1034 113.148 54.1034 113.328C54.1034 113.488 54.0934 113.698 54.0734 113.958C54.0734 114.218 54.0734 114.538 54.0734 114.918V118.278C54.0734 118.678 54.0734 119.008 54.0734 119.268C54.0934 119.508 54.1034 119.718 54.1034 119.898C54.1234 120.078 54.1334 120.248 54.1334 120.408C54.1534 120.548 54.1734 120.708 54.1934 120.888C54.2334 121.308 54.2734 121.628 54.3134 121.848C54.3734 122.048 54.4834 122.218 54.6434 122.358C54.8034 122.518 55.0234 122.618 55.3034 122.658C55.6034 122.678 55.9034 122.688 56.2034 122.688L56.3534 122.838L56.4134 123.828L56.3534 123.948ZM50.2634 105.438C50.2634 105.198 50.3134 104.958 50.4134 104.718C50.5134 104.478 50.6534 104.268 50.8334 104.088C51.0134 103.888 51.2134 103.738 51.4334 103.638C51.6734 103.518 51.9234 103.458 52.1834 103.458C52.6834 103.458 53.1334 103.668 53.5334 104.088C53.9534 104.488 54.1634 104.938 54.1634 105.438C54.1634 105.698 54.1034 105.948 53.9834 106.188C53.8834 106.408 53.7334 106.608 53.5334 106.788C53.3534 106.968 53.1434 107.108 52.9034 107.208C52.6634 107.308 52.4234 107.358 52.1834 107.358C51.6634 107.358 51.2134 107.168 50.8334 106.788C50.4534 106.408 50.2634 105.958 50.2634 105.438ZM69.2733 123.318C69.2733 123.178 69.3033 122.918 69.3633 122.538C69.4433 122.138 69.5033 121.788 69.5433 121.488L69.5133 121.368C68.9933 122.288 68.2733 122.988 67.3533 123.468C66.4333 123.928 65.4733 124.158 64.4733 124.158C63.3733 124.158 62.4133 123.958 61.5933 123.558C60.7933 123.158 60.1233 122.628 59.5833 121.968C59.0433 121.308 58.6433 120.548 58.3833 119.688C58.1233 118.828 57.9933 117.938 57.9933 117.018C57.9933 115.678 58.2033 114.538 58.6233 113.598C59.0633 112.638 59.6133 111.868 60.2733 111.288C60.9333 110.688 61.6533 110.258 62.4333 109.998C63.2333 109.718 64.0033 109.578 64.7433 109.578C65.6433 109.578 66.5333 109.788 67.4133 110.208C68.2933 110.628 69.0133 111.318 69.5733 112.278L69.6333 112.158C69.5933 111.578 69.5733 110.988 69.5733 110.388C69.5733 109.768 69.5733 109.168 69.5733 108.588C69.5733 107.968 69.5733 107.458 69.5733 107.058C69.5733 106.638 69.5633 106.288 69.5433 106.008C69.5433 105.728 69.5333 105.478 69.5133 105.258C69.5133 105.038 69.5033 104.808 69.4833 104.568C69.4633 104.368 69.3933 104.178 69.2733 103.998C69.1533 103.818 69.0633 103.698 69.0033 103.638C68.7233 103.418 68.4433 103.278 68.1633 103.218C67.9033 103.158 67.5933 103.128 67.2333 103.128L67.1133 103.008V102.018L67.2333 101.898H68.9433C69.4033 101.898 69.8833 101.898 70.3833 101.898C70.9033 101.878 71.3633 101.838 71.7633 101.778L72.8133 101.628L72.9933 102.198C72.9533 102.278 72.9133 102.428 72.8733 102.648C72.8533 102.848 72.8333 103.068 72.8133 103.308C72.8133 103.548 72.8033 103.778 72.7833 103.998C72.7833 104.218 72.7833 104.388 72.7833 104.508C72.7833 104.808 72.7733 105.098 72.7533 105.378C72.7533 105.638 72.7533 105.948 72.7533 106.308C72.7533 106.648 72.7433 107.078 72.7233 107.598C72.7233 108.098 72.7233 108.748 72.7233 109.548V116.088C72.7233 116.928 72.7233 117.608 72.7233 118.128C72.7433 118.628 72.7533 119.048 72.7533 119.388C72.7733 119.728 72.7833 120.028 72.7833 120.288C72.8033 120.528 72.8233 120.828 72.8433 121.188C72.8833 121.548 72.9333 121.808 72.9933 121.968C73.0733 122.128 73.1833 122.258 73.3233 122.358C73.4833 122.518 73.7033 122.618 73.9833 122.658C74.2633 122.678 74.5233 122.688 74.7633 122.688L74.8833 122.808L74.9433 123.828L74.8833 123.948C74.5433 123.908 74.1733 123.878 73.7733 123.858C73.3733 123.838 72.9933 123.828 72.6333 123.828C72.0933 123.828 71.5533 123.828 71.0133 123.828C70.4733 123.848 69.9633 123.878 69.4833 123.918L69.2733 123.318ZM61.4733 116.988C61.4733 117.588 61.5433 118.178 61.6833 118.758C61.8433 119.318 62.0733 119.828 62.3733 120.288C62.6733 120.728 63.0533 121.088 63.5133 121.368C63.9933 121.628 64.5533 121.758 65.1933 121.758C65.8733 121.758 66.4733 121.648 66.9933 121.428C67.5333 121.188 67.9833 120.908 68.3433 120.588C68.7233 120.248 69.0133 119.898 69.2133 119.538C69.4333 119.178 69.5533 118.868 69.5733 118.608V115.278C69.5333 115.018 69.4133 114.708 69.2133 114.348C69.0333 113.968 68.7633 113.608 68.4033 113.268C68.0633 112.928 67.6333 112.638 67.1133 112.398C66.5933 112.138 65.9733 112.008 65.2533 112.008C64.5933 112.008 64.0233 112.158 63.5433 112.458C63.0633 112.738 62.6633 113.108 62.3433 113.568C62.0433 114.028 61.8233 114.558 61.6833 115.158C61.5433 115.758 61.4733 116.368 61.4733 116.988ZM84.9347 123.618C84.9947 123.438 85.0347 123.178 85.0547 122.838C85.0947 122.498 85.1447 122.188 85.2047 121.908L85.1747 121.818C84.9347 122.118 84.6547 122.408 84.3347 122.688C84.0347 122.968 83.6947 123.218 83.3147 123.438C82.9347 123.658 82.5247 123.828 82.0847 123.948C81.6647 124.088 81.2147 124.158 80.7347 124.158C80.0147 124.158 79.3847 124.048 78.8447 123.828C78.3047 123.608 77.8547 123.318 77.4947 122.958C77.1347 122.598 76.8547 122.178 76.6547 121.698C76.4747 121.218 76.3847 120.718 76.3847 120.198C76.3847 119.418 76.5547 118.738 76.8947 118.158C77.2347 117.578 77.6847 117.108 78.2447 116.748C78.7647 116.408 79.3747 116.148 80.0747 115.968C80.7747 115.768 81.4547 115.618 82.1147 115.518C82.7747 115.418 83.3747 115.358 83.9147 115.338C84.4547 115.298 84.8147 115.278 84.9947 115.278H85.4147C85.3947 114.658 85.3547 114.178 85.2947 113.838C85.2347 113.478 85.1547 113.178 85.0547 112.938C84.8747 112.538 84.5747 112.258 84.1547 112.098C83.7547 111.918 83.2747 111.828 82.7147 111.828C82.3747 111.828 82.0047 111.858 81.6047 111.918C81.2247 111.958 80.8647 112.048 80.5247 112.188C80.1847 112.328 79.8847 112.528 79.6247 112.788C79.3847 113.028 79.2447 113.348 79.2047 113.748L79.0847 113.838H78.1247L77.8547 111.018L77.9447 110.838C78.0647 110.718 78.2947 110.588 78.6347 110.448C78.9747 110.308 79.3847 110.178 79.8647 110.058C80.3447 109.918 80.8647 109.808 81.4247 109.728C82.0047 109.628 82.5847 109.578 83.1647 109.578C83.9447 109.578 84.6747 109.678 85.3547 109.878C86.0347 110.058 86.6147 110.338 87.0947 110.718C87.5947 111.098 87.9847 111.578 88.2647 112.158C88.5447 112.718 88.6847 113.378 88.6847 114.138C88.6847 114.958 88.6747 115.658 88.6547 116.238C88.6547 116.818 88.6447 117.358 88.6247 117.858C88.6047 118.358 88.5847 118.848 88.5647 119.328C88.5647 119.788 88.5647 120.308 88.5647 120.888C88.6047 121.348 88.6547 121.678 88.7147 121.878C88.7747 122.078 88.8747 122.238 89.0147 122.358C89.1747 122.518 89.4147 122.618 89.7347 122.658C90.0747 122.678 90.3847 122.688 90.6647 122.688L90.7547 122.808L90.8147 123.828L90.7847 123.948C90.4447 123.908 90.0547 123.878 89.6147 123.858C89.1747 123.838 88.7647 123.828 88.3847 123.828C87.8247 123.828 87.2647 123.828 86.7047 123.828C86.1447 123.848 85.6147 123.878 85.1147 123.918L84.9347 123.618ZM84.9347 120.378C84.9947 120.278 85.0547 120.158 85.1147 120.018C85.1947 119.878 85.2447 119.708 85.2647 119.508L85.4147 116.958H85.1447C84.5247 116.958 83.9147 116.998 83.3147 117.078C82.7147 117.158 82.1747 117.308 81.6947 117.528C81.2147 117.748 80.8247 118.058 80.5247 118.458C80.2247 118.858 80.0747 119.378 80.0747 120.018C80.0747 120.558 80.2047 120.988 80.4647 121.308C80.7447 121.628 81.1147 121.788 81.5747 121.788C81.9147 121.788 82.2547 121.748 82.5947 121.668C82.9547 121.568 83.2847 121.448 83.5847 121.308C83.8847 121.168 84.1547 121.018 84.3947 120.858C84.6347 120.678 84.8147 120.518 84.9347 120.378ZM91.5828 102.018L91.7028 101.898H93.2028C93.6628 101.898 94.1528 101.898 94.6728 101.898C95.1928 101.878 95.6528 101.838 96.0528 101.778L97.1328 101.628L97.3128 102.198C97.2728 102.278 97.2328 102.428 97.1928 102.648C97.1728 102.848 97.1528 103.068 97.1328 103.308C97.1328 103.548 97.1228 103.778 97.1028 103.998C97.1028 104.218 97.1028 104.388 97.1028 104.508C97.1028 104.828 97.0928 105.128 97.0728 105.408C97.0728 105.688 97.0628 106.018 97.0428 106.398C97.0428 106.778 97.0328 107.238 97.0128 107.778C97.0128 108.318 97.0128 109.008 97.0128 109.848V115.578L100.193 112.608C100.413 112.388 100.523 112.178 100.523 111.978C100.523 111.658 100.063 111.418 99.1428 111.258L99.0228 111.138V110.178L99.1428 110.058C99.5228 110.098 99.9028 110.138 100.283 110.178C100.663 110.218 101.053 110.238 101.453 110.238H103.283C103.623 110.238 103.963 110.218 104.303 110.178C104.643 110.138 104.983 110.098 105.323 110.058L105.413 110.178V111.198L105.263 111.348C105.103 111.388 104.893 111.438 104.633 111.498C104.393 111.558 104.173 111.648 103.973 111.768C103.673 111.948 103.363 112.158 103.043 112.398C102.743 112.638 102.433 112.898 102.113 113.178C101.813 113.458 101.503 113.748 101.183 114.048C100.883 114.328 100.603 114.588 100.343 114.828L99.6828 115.428L103.583 120.228C103.903 120.628 104.203 120.978 104.483 121.278C104.763 121.558 105.053 121.798 105.353 121.998C105.653 122.198 105.973 122.358 106.313 122.478C106.653 122.598 107.053 122.668 107.513 122.688L107.603 122.808L107.663 123.828L107.603 123.948C107.103 123.988 106.553 124.008 105.953 124.008C105.373 124.028 104.783 124.038 104.183 124.038C103.743 124.038 103.333 123.908 102.953 123.648C102.573 123.368 102.243 123.058 101.963 122.718L97.1928 116.838L97.0128 117.018C97.0128 117.698 97.0228 118.398 97.0428 119.118C97.0628 119.818 97.0928 120.408 97.1328 120.888C97.1528 121.308 97.1928 121.628 97.2528 121.848C97.3128 122.048 97.4228 122.218 97.5828 122.358C97.7428 122.518 97.9628 122.618 98.2428 122.658C98.5428 122.678 98.8428 122.688 99.1428 122.688L99.2928 122.838L99.3528 123.828L99.2928 123.948C99.1328 123.948 98.9128 123.938 98.6328 123.918C98.3528 123.898 98.0628 123.878 97.7628 123.858C97.4628 123.858 97.1628 123.848 96.8628 123.828C96.5828 123.828 96.3728 123.828 96.2328 123.828H94.6128C94.4728 123.828 94.2528 123.828 93.9528 123.828C93.6728 123.848 93.3728 123.858 93.0528 123.858C92.7528 123.878 92.4528 123.898 92.1528 123.918C91.8728 123.938 91.6628 123.948 91.5228 123.948L91.4928 123.828L91.5528 122.808L91.6428 122.688C91.9628 122.688 92.2728 122.678 92.5728 122.658C92.8928 122.618 93.1328 122.518 93.2928 122.358C93.4528 122.218 93.5528 122.038 93.5928 121.818C93.6528 121.598 93.7028 121.288 93.7428 120.888C93.7628 120.668 93.7728 120.448 93.7728 120.228C93.7928 119.988 93.8028 119.718 93.8028 119.418C93.8228 119.118 93.8328 118.758 93.8328 118.338C93.8328 117.918 93.8328 117.408 93.8328 116.808V110.208C93.8328 109.388 93.8328 108.698 93.8328 108.138C93.8328 107.558 93.8228 107.058 93.8028 106.638C93.8028 106.218 93.7928 105.848 93.7728 105.528C93.7728 105.208 93.7628 104.888 93.7428 104.568C93.7228 104.348 93.6628 104.158 93.5628 103.998C93.4828 103.818 93.4128 103.688 93.3528 103.608C93.1528 103.388 92.9028 103.258 92.6028 103.218C92.3228 103.158 92.0228 103.128 91.7028 103.128L91.5828 103.008V102.018ZM123.9 123.618C123.96 123.438 124 123.178 124.02 122.838C124.06 122.498 124.11 122.188 124.17 121.908L124.14 121.818C123.9 122.118 123.62 122.408 123.3 122.688C123 122.968 122.66 123.218 122.28 123.438C121.9 123.658 121.49 123.828 121.05 123.948C120.63 124.088 120.18 124.158 119.7 124.158C118.98 124.158 118.35 124.048 117.81 123.828C117.27 123.608 116.82 123.318 116.46 122.958C116.1 122.598 115.82 122.178 115.62 121.698C115.44 121.218 115.35 120.718 115.35 120.198C115.35 119.418 115.52 118.738 115.86 118.158C116.2 117.578 116.65 117.108 117.21 116.748C117.73 116.408 118.34 116.148 119.04 115.968C119.74 115.768 120.42 115.618 121.08 115.518C121.74 115.418 122.34 115.358 122.88 115.338C123.42 115.298 123.78 115.278 123.96 115.278H124.38C124.36 114.658 124.32 114.178 124.26 113.838C124.2 113.478 124.12 113.178 124.02 112.938C123.84 112.538 123.54 112.258 123.12 112.098C122.72 111.918 122.24 111.828 121.68 111.828C121.34 111.828 120.97 111.858 120.57 111.918C120.19 111.958 119.83 112.048 119.49 112.188C119.15 112.328 118.85 112.528 118.59 112.788C118.35 113.028 118.21 113.348 118.17 113.748L118.05 113.838H117.09L116.82 111.018L116.91 110.838C117.03 110.718 117.26 110.588 117.6 110.448C117.94 110.308 118.35 110.178 118.83 110.058C119.31 109.918 119.83 109.808 120.39 109.728C120.97 109.628 121.55 109.578 122.13 109.578C122.91 109.578 123.64 109.678 124.32 109.878C125 110.058 125.58 110.338 126.06 110.718C126.56 111.098 126.95 111.578 127.23 112.158C127.51 112.718 127.65 113.378 127.65 114.138C127.65 114.958 127.64 115.658 127.62 116.238C127.62 116.818 127.61 117.358 127.59 117.858C127.57 118.358 127.55 118.848 127.53 119.328C127.53 119.788 127.53 120.308 127.53 120.888C127.57 121.348 127.62 121.678 127.68 121.878C127.74 122.078 127.84 122.238 127.98 122.358C128.14 122.518 128.38 122.618 128.7 122.658C129.04 122.678 129.35 122.688 129.63 122.688L129.72 122.808L129.78 123.828L129.75 123.948C129.41 123.908 129.02 123.878 128.58 123.858C128.14 123.838 127.73 123.828 127.35 123.828C126.79 123.828 126.23 123.828 125.67 123.828C125.11 123.848 124.58 123.878 124.08 123.918L123.9 123.618ZM123.9 120.378C123.96 120.278 124.02 120.158 124.08 120.018C124.16 119.878 124.21 119.708 124.23 119.508L124.38 116.958H124.11C123.49 116.958 122.88 116.998 122.28 117.078C121.68 117.158 121.14 117.308 120.66 117.528C120.18 117.748 119.79 118.058 119.49 118.458C119.19 118.858 119.04 119.378 119.04 120.018C119.04 120.558 119.17 120.988 119.43 121.308C119.71 121.628 120.08 121.788 120.54 121.788C120.88 121.788 121.22 121.748 121.56 121.668C121.92 121.568 122.25 121.448 122.55 121.308C122.85 121.168 123.12 121.018 123.36 120.858C123.6 120.678 123.78 120.518 123.9 120.378ZM142.428 123.318C142.428 123.178 142.458 122.918 142.518 122.538C142.598 122.138 142.658 121.788 142.698 121.488L142.668 121.368C142.148 122.288 141.428 122.988 140.508 123.468C139.588 123.928 138.628 124.158 137.628 124.158C136.528 124.158 135.568 123.958 134.748 123.558C133.948 123.158 133.278 122.628 132.738 121.968C132.198 121.308 131.798 120.548 131.538 119.688C131.278 118.828 131.148 117.938 131.148 117.018C131.148 115.678 131.358 114.538 131.778 113.598C132.218 112.638 132.768 111.868 133.428 111.288C134.088 110.688 134.808 110.258 135.588 109.998C136.388 109.718 137.158 109.578 137.898 109.578C138.798 109.578 139.688 109.788 140.568 110.208C141.448 110.628 142.168 111.318 142.728 112.278L142.788 112.158C142.748 111.578 142.728 110.988 142.728 110.388C142.728 109.768 142.728 109.168 142.728 108.588C142.728 107.968 142.728 107.458 142.728 107.058C142.728 106.638 142.718 106.288 142.698 106.008C142.698 105.728 142.688 105.478 142.668 105.258C142.668 105.038 142.658 104.808 142.638 104.568C142.618 104.368 142.548 104.178 142.428 103.998C142.308 103.818 142.218 103.698 142.158 103.638C141.878 103.418 141.598 103.278 141.318 103.218C141.058 103.158 140.748 103.128 140.388 103.128L140.268 103.008V102.018L140.388 101.898H142.098C142.558 101.898 143.038 101.898 143.538 101.898C144.058 101.878 144.518 101.838 144.918 101.778L145.968 101.628L146.148 102.198C146.108 102.278 146.068 102.428 146.028 102.648C146.008 102.848 145.988 103.068 145.968 103.308C145.968 103.548 145.958 103.778 145.938 103.998C145.938 104.218 145.938 104.388 145.938 104.508C145.938 104.808 145.928 105.098 145.908 105.378C145.908 105.638 145.908 105.948 145.908 106.308C145.908 106.648 145.898 107.078 145.878 107.598C145.878 108.098 145.878 108.748 145.878 109.548V116.088C145.878 116.928 145.878 117.608 145.878 118.128C145.898 118.628 145.908 119.048 145.908 119.388C145.928 119.728 145.938 120.028 145.938 120.288C145.958 120.528 145.978 120.828 145.998 121.188C146.038 121.548 146.088 121.808 146.148 121.968C146.228 122.128 146.338 122.258 146.478 122.358C146.638 122.518 146.858 122.618 147.138 122.658C147.418 122.678 147.678 122.688 147.918 122.688L148.038 122.808L148.098 123.828L148.038 123.948C147.698 123.908 147.328 123.878 146.928 123.858C146.528 123.838 146.148 123.828 145.788 123.828C145.248 123.828 144.708 123.828 144.168 123.828C143.628 123.848 143.118 123.878 142.638 123.918L142.428 123.318ZM134.628 116.988C134.628 117.588 134.698 118.178 134.838 118.758C134.998 119.318 135.228 119.828 135.528 120.288C135.828 120.728 136.208 121.088 136.668 121.368C137.148 121.628 137.708 121.758 138.348 121.758C139.028 121.758 139.628 121.648 140.148 121.428C140.688 121.188 141.138 120.908 141.498 120.588C141.878 120.248 142.168 119.898 142.368 119.538C142.588 119.178 142.708 118.868 142.728 118.608V115.278C142.688 115.018 142.568 114.708 142.368 114.348C142.188 113.968 141.918 113.608 141.558 113.268C141.218 112.928 140.788 112.638 140.268 112.398C139.748 112.138 139.128 112.008 138.408 112.008C137.748 112.008 137.178 112.158 136.698 112.458C136.218 112.738 135.818 113.108 135.498 113.568C135.198 114.028 134.978 114.558 134.838 115.158C134.698 115.758 134.628 116.368 134.628 116.988ZM158.089 123.618C158.149 123.438 158.189 123.178 158.209 122.838C158.249 122.498 158.299 122.188 158.359 121.908L158.329 121.818C158.089 122.118 157.809 122.408 157.489 122.688C157.189 122.968 156.849 123.218 156.469 123.438C156.089 123.658 155.679 123.828 155.239 123.948C154.819 124.088 154.369 124.158 153.889 124.158C153.169 124.158 152.539 124.048 151.999 123.828C151.459 123.608 151.009 123.318 150.649 122.958C150.289 122.598 150.009 122.178 149.809 121.698C149.629 121.218 149.539 120.718 149.539 120.198C149.539 119.418 149.709 118.738 150.049 118.158C150.389 117.578 150.839 117.108 151.399 116.748C151.919 116.408 152.529 116.148 153.229 115.968C153.929 115.768 154.609 115.618 155.269 115.518C155.929 115.418 156.529 115.358 157.069 115.338C157.609 115.298 157.969 115.278 158.149 115.278H158.569C158.549 114.658 158.509 114.178 158.449 113.838C158.389 113.478 158.309 113.178 158.209 112.938C158.029 112.538 157.729 112.258 157.309 112.098C156.909 111.918 156.429 111.828 155.869 111.828C155.529 111.828 155.159 111.858 154.759 111.918C154.379 111.958 154.019 112.048 153.679 112.188C153.339 112.328 153.039 112.528 152.779 112.788C152.539 113.028 152.399 113.348 152.359 113.748L152.239 113.838H151.279L151.009 111.018L151.099 110.838C151.219 110.718 151.449 110.588 151.789 110.448C152.129 110.308 152.539 110.178 153.019 110.058C153.499 109.918 154.019 109.808 154.579 109.728C155.159 109.628 155.739 109.578 156.319 109.578C157.099 109.578 157.829 109.678 158.509 109.878C159.189 110.058 159.769 110.338 160.249 110.718C160.749 111.098 161.139 111.578 161.419 112.158C161.699 112.718 161.839 113.378 161.839 114.138C161.839 114.958 161.829 115.658 161.809 116.238C161.809 116.818 161.799 117.358 161.779 117.858C161.759 118.358 161.739 118.848 161.719 119.328C161.719 119.788 161.719 120.308 161.719 120.888C161.759 121.348 161.809 121.678 161.869 121.878C161.929 122.078 162.029 122.238 162.169 122.358C162.329 122.518 162.569 122.618 162.889 122.658C163.229 122.678 163.539 122.688 163.819 122.688L163.909 122.808L163.969 123.828L163.939 123.948C163.599 123.908 163.209 123.878 162.769 123.858C162.329 123.838 161.919 123.828 161.539 123.828C160.979 123.828 160.419 123.828 159.859 123.828C159.299 123.848 158.769 123.878 158.269 123.918L158.089 123.618ZM158.089 120.378C158.149 120.278 158.209 120.158 158.269 120.018C158.349 119.878 158.399 119.708 158.419 119.508L158.569 116.958H158.299C157.679 116.958 157.069 116.998 156.469 117.078C155.869 117.158 155.329 117.308 154.849 117.528C154.369 117.748 153.979 118.058 153.679 118.458C153.379 118.858 153.229 119.378 153.229 120.018C153.229 120.558 153.359 120.988 153.619 121.308C153.899 121.628 154.269 121.788 154.729 121.788C155.069 121.788 155.409 121.748 155.749 121.668C156.109 121.568 156.439 121.448 156.739 121.308C157.039 121.168 157.309 121.018 157.549 120.858C157.789 120.678 157.969 120.518 158.089 120.378ZM183.944 114.138L183.824 114.048C183.824 113.588 183.684 113.218 183.404 112.938C183.144 112.638 182.824 112.408 182.444 112.248C182.064 112.088 181.654 111.978 181.214 111.918C180.794 111.858 180.424 111.828 180.104 111.828C179.384 111.828 178.754 111.968 178.214 112.248C177.674 112.528 177.234 112.898 176.894 113.358C176.554 113.818 176.294 114.348 176.114 114.948C175.954 115.548 175.874 116.168 175.874 116.808C175.874 117.488 175.964 118.138 176.144 118.758C176.344 119.378 176.634 119.928 177.014 120.408C177.394 120.888 177.874 121.278 178.454 121.578C179.054 121.858 179.754 121.998 180.554 121.998C181.234 121.998 181.954 121.928 182.714 121.788C183.474 121.648 184.154 121.418 184.754 121.098L185.264 121.818L184.814 122.658C184.594 122.818 184.304 122.988 183.944 123.168C183.604 123.328 183.214 123.488 182.774 123.648C182.334 123.788 181.854 123.908 181.334 124.008C180.834 124.108 180.334 124.158 179.834 124.158C178.854 124.158 177.914 123.988 177.014 123.648C176.134 123.288 175.354 122.798 174.674 122.178C174.014 121.538 173.484 120.778 173.084 119.898C172.684 118.998 172.484 118.008 172.484 116.928C172.484 115.828 172.684 114.828 173.084 113.928C173.484 113.028 174.034 112.258 174.734 111.618C175.434 110.978 176.244 110.478 177.164 110.118C178.104 109.758 179.104 109.578 180.164 109.578C180.644 109.578 181.124 109.618 181.604 109.698C182.104 109.758 182.574 109.838 183.014 109.938C183.474 110.038 183.884 110.158 184.244 110.298C184.604 110.418 184.894 110.538 185.114 110.658L185.204 110.928L184.874 114.138H183.944ZM195.56 123.618C195.62 123.438 195.66 123.178 195.68 122.838C195.72 122.498 195.77 122.188 195.83 121.908L195.8 121.818C195.56 122.118 195.28 122.408 194.96 122.688C194.66 122.968 194.32 123.218 193.94 123.438C193.56 123.658 193.15 123.828 192.71 123.948C192.29 124.088 191.84 124.158 191.36 124.158C190.64 124.158 190.01 124.048 189.47 123.828C188.93 123.608 188.48 123.318 188.12 122.958C187.76 122.598 187.48 122.178 187.28 121.698C187.1 121.218 187.01 120.718 187.01 120.198C187.01 119.418 187.18 118.738 187.52 118.158C187.86 117.578 188.31 117.108 188.87 116.748C189.39 116.408 190 116.148 190.7 115.968C191.4 115.768 192.08 115.618 192.74 115.518C193.4 115.418 194 115.358 194.54 115.338C195.08 115.298 195.44 115.278 195.62 115.278H196.04C196.02 114.658 195.98 114.178 195.92 113.838C195.86 113.478 195.78 113.178 195.68 112.938C195.5 112.538 195.2 112.258 194.78 112.098C194.38 111.918 193.9 111.828 193.34 111.828C193 111.828 192.63 111.858 192.23 111.918C191.85 111.958 191.49 112.048 191.15 112.188C190.81 112.328 190.51 112.528 190.25 112.788C190.01 113.028 189.87 113.348 189.83 113.748L189.71 113.838H188.75L188.48 111.018L188.57 110.838C188.69 110.718 188.92 110.588 189.26 110.448C189.6 110.308 190.01 110.178 190.49 110.058C190.97 109.918 191.49 109.808 192.05 109.728C192.63 109.628 193.21 109.578 193.79 109.578C194.57 109.578 195.3 109.678 195.98 109.878C196.66 110.058 197.24 110.338 197.72 110.718C198.22 111.098 198.61 111.578 198.89 112.158C199.17 112.718 199.31 113.378 199.31 114.138C199.31 114.958 199.3 115.658 199.28 116.238C199.28 116.818 199.27 117.358 199.25 117.858C199.23 118.358 199.21 118.848 199.19 119.328C199.19 119.788 199.19 120.308 199.19 120.888C199.23 121.348 199.28 121.678 199.34 121.878C199.4 122.078 199.5 122.238 199.64 122.358C199.8 122.518 200.04 122.618 200.36 122.658C200.7 122.678 201.01 122.688 201.29 122.688L201.38 122.808L201.44 123.828L201.41 123.948C201.07 123.908 200.68 123.878 200.24 123.858C199.8 123.838 199.39 123.828 199.01 123.828C198.45 123.828 197.89 123.828 197.33 123.828C196.77 123.848 196.24 123.878 195.74 123.918L195.56 123.618ZM195.56 120.378C195.62 120.278 195.68 120.158 195.74 120.018C195.82 119.878 195.87 119.708 195.89 119.508L196.04 116.958H195.77C195.15 116.958 194.54 116.998 193.94 117.078C193.34 117.158 192.8 117.308 192.32 117.528C191.84 117.748 191.45 118.058 191.15 118.458C190.85 118.858 190.7 119.378 190.7 120.018C190.7 120.558 190.83 120.988 191.09 121.308C191.37 121.628 191.74 121.788 192.2 121.788C192.54 121.788 192.88 121.748 193.22 121.668C193.58 121.568 193.91 121.448 194.21 121.308C194.51 121.168 194.78 121.018 195.02 120.858C195.26 120.678 195.44 120.518 195.56 120.378ZM210.938 111.828H207.638C207.638 112.988 207.628 114.068 207.608 115.068C207.608 116.048 207.608 116.908 207.608 117.648C207.608 118.368 207.598 118.958 207.578 119.418C207.578 119.878 207.578 120.158 207.578 120.258C207.578 121.038 207.728 121.558 208.028 121.818C208.328 122.078 208.678 122.208 209.078 122.208C209.378 122.208 209.718 122.178 210.098 122.118C210.478 122.058 210.798 121.978 211.058 121.878L211.238 122.208L210.938 123.198C210.398 123.498 209.838 123.728 209.258 123.888C208.698 124.068 208.178 124.158 207.698 124.158C206.478 124.158 205.608 123.878 205.088 123.318C204.568 122.758 204.308 122.038 204.308 121.158C204.308 120.978 204.318 120.628 204.338 120.108C204.358 119.568 204.378 118.898 204.398 118.098C204.418 117.278 204.438 116.338 204.458 115.278C204.478 114.218 204.488 113.068 204.488 111.828H202.928L202.808 111.678V110.358L202.928 110.238L204.488 109.818C204.488 109.178 204.468 108.528 204.428 107.868C204.408 107.188 204.378 106.528 204.338 105.888L204.548 105.708L204.968 105.678C205.108 105.678 205.298 105.668 205.538 105.648C205.798 105.628 206.068 105.608 206.348 105.588C206.628 105.548 206.888 105.508 207.128 105.468C207.388 105.428 207.578 105.388 207.698 105.348L207.968 105.468C207.868 105.968 207.788 106.638 207.728 107.478C207.668 108.298 207.638 109.078 207.638 109.818L210.938 109.638L211.088 109.758V111.678L210.938 111.828ZM221.165 123.618C221.225 123.438 221.265 123.178 221.285 122.838C221.325 122.498 221.375 122.188 221.435 121.908L221.405 121.818C221.165 122.118 220.885 122.408 220.565 122.688C220.265 122.968 219.925 123.218 219.545 123.438C219.165 123.658 218.755 123.828 218.315 123.948C217.895 124.088 217.445 124.158 216.965 124.158C216.245 124.158 215.615 124.048 215.075 123.828C214.535 123.608 214.085 123.318 213.725 122.958C213.365 122.598 213.085 122.178 212.885 121.698C212.705 121.218 212.615 120.718 212.615 120.198C212.615 119.418 212.785 118.738 213.125 118.158C213.465 117.578 213.915 117.108 214.475 116.748C214.995 116.408 215.605 116.148 216.305 115.968C217.005 115.768 217.685 115.618 218.345 115.518C219.005 115.418 219.605 115.358 220.145 115.338C220.685 115.298 221.045 115.278 221.225 115.278H221.645C221.625 114.658 221.585 114.178 221.525 113.838C221.465 113.478 221.385 113.178 221.285 112.938C221.105 112.538 220.805 112.258 220.385 112.098C219.985 111.918 219.505 111.828 218.945 111.828C218.605 111.828 218.235 111.858 217.835 111.918C217.455 111.958 217.095 112.048 216.755 112.188C216.415 112.328 216.115 112.528 215.855 112.788C215.615 113.028 215.475 113.348 215.435 113.748L215.315 113.838H214.355L214.085 111.018L214.175 110.838C214.295 110.718 214.525 110.588 214.865 110.448C215.205 110.308 215.615 110.178 216.095 110.058C216.575 109.918 217.095 109.808 217.655 109.728C218.235 109.628 218.815 109.578 219.395 109.578C220.175 109.578 220.905 109.678 221.585 109.878C222.265 110.058 222.845 110.338 223.325 110.718C223.825 111.098 224.215 111.578 224.495 112.158C224.775 112.718 224.915 113.378 224.915 114.138C224.915 114.958 224.905 115.658 224.885 116.238C224.885 116.818 224.875 117.358 224.855 117.858C224.835 118.358 224.815 118.848 224.795 119.328C224.795 119.788 224.795 120.308 224.795 120.888C224.835 121.348 224.885 121.678 224.945 121.878C225.005 122.078 225.105 122.238 225.245 122.358C225.405 122.518 225.645 122.618 225.965 122.658C226.305 122.678 226.615 122.688 226.895 122.688L226.985 122.808L227.045 123.828L227.015 123.948C226.675 123.908 226.285 123.878 225.845 123.858C225.405 123.838 224.995 123.828 224.615 123.828C224.055 123.828 223.495 123.828 222.935 123.828C222.375 123.848 221.845 123.878 221.345 123.918L221.165 123.618ZM221.165 120.378C221.225 120.278 221.285 120.158 221.345 120.018C221.425 119.878 221.475 119.708 221.495 119.508L221.645 116.958H221.375C220.755 116.958 220.145 116.998 219.545 117.078C218.945 117.158 218.405 117.308 217.925 117.528C217.445 117.748 217.055 118.058 216.755 118.458C216.455 118.858 216.305 119.378 216.305 120.018C216.305 120.558 216.435 120.988 216.695 121.308C216.975 121.628 217.345 121.788 217.805 121.788C218.145 121.788 218.485 121.748 218.825 121.668C219.185 121.568 219.515 121.448 219.815 121.308C220.115 121.168 220.385 121.018 220.625 120.858C220.865 120.678 221.045 120.518 221.165 120.378ZM236.543 111.828H233.243C233.243 112.988 233.233 114.068 233.213 115.068C233.213 116.048 233.213 116.908 233.213 117.648C233.213 118.368 233.203 118.958 233.183 119.418C233.183 119.878 233.183 120.158 233.183 120.258C233.183 121.038 233.333 121.558 233.633 121.818C233.933 122.078 234.283 122.208 234.683 122.208C234.983 122.208 235.323 122.178 235.703 122.118C236.083 122.058 236.403 121.978 236.663 121.878L236.843 122.208L236.543 123.198C236.003 123.498 235.443 123.728 234.863 123.888C234.303 124.068 233.783 124.158 233.303 124.158C232.083 124.158 231.213 123.878 230.693 123.318C230.173 122.758 229.913 122.038 229.913 121.158C229.913 120.978 229.923 120.628 229.943 120.108C229.963 119.568 229.983 118.898 230.003 118.098C230.023 117.278 230.043 116.338 230.063 115.278C230.083 114.218 230.093 113.068 230.093 111.828H228.533L228.413 111.678V110.358L228.533 110.238L230.093 109.818C230.093 109.178 230.073 108.528 230.033 107.868C230.013 107.188 229.983 106.528 229.943 105.888L230.153 105.708L230.573 105.678C230.713 105.678 230.903 105.668 231.143 105.648C231.403 105.628 231.673 105.608 231.953 105.588C232.233 105.548 232.493 105.508 232.733 105.468C232.993 105.428 233.183 105.388 233.303 105.348L233.573 105.468C233.473 105.968 233.393 106.638 233.333 107.478C233.273 108.298 233.243 109.078 233.243 109.818L236.543 109.638L236.693 109.758V111.678L236.543 111.828ZM246.771 123.618C246.831 123.438 246.871 123.178 246.891 122.838C246.931 122.498 246.981 122.188 247.041 121.908L247.011 121.818C246.771 122.118 246.491 122.408 246.171 122.688C245.871 122.968 245.531 123.218 245.151 123.438C244.771 123.658 244.361 123.828 243.921 123.948C243.501 124.088 243.051 124.158 242.571 124.158C241.851 124.158 241.221 124.048 240.681 123.828C240.141 123.608 239.691 123.318 239.331 122.958C238.971 122.598 238.691 122.178 238.491 121.698C238.311 121.218 238.221 120.718 238.221 120.198C238.221 119.418 238.391 118.738 238.731 118.158C239.071 117.578 239.521 117.108 240.081 116.748C240.601 116.408 241.211 116.148 241.911 115.968C242.611 115.768 243.291 115.618 243.951 115.518C244.611 115.418 245.211 115.358 245.751 115.338C246.291 115.298 246.651 115.278 246.831 115.278H247.251C247.231 114.658 247.191 114.178 247.131 113.838C247.071 113.478 246.991 113.178 246.891 112.938C246.711 112.538 246.411 112.258 245.991 112.098C245.591 111.918 245.111 111.828 244.551 111.828C244.211 111.828 243.841 111.858 243.441 111.918C243.061 111.958 242.701 112.048 242.361 112.188C242.021 112.328 241.721 112.528 241.461 112.788C241.221 113.028 241.081 113.348 241.041 113.748L240.921 113.838H239.961L239.691 111.018L239.781 110.838C239.901 110.718 240.131 110.588 240.471 110.448C240.811 110.308 241.221 110.178 241.701 110.058C242.181 109.918 242.701 109.808 243.261 109.728C243.841 109.628 244.421 109.578 245.001 109.578C245.781 109.578 246.511 109.678 247.191 109.878C247.871 110.058 248.451 110.338 248.931 110.718C249.431 111.098 249.821 111.578 250.101 112.158C250.381 112.718 250.521 113.378 250.521 114.138C250.521 114.958 250.511 115.658 250.491 116.238C250.491 116.818 250.481 117.358 250.461 117.858C250.441 118.358 250.421 118.848 250.401 119.328C250.401 119.788 250.401 120.308 250.401 120.888C250.441 121.348 250.491 121.678 250.551 121.878C250.611 122.078 250.711 122.238 250.851 122.358C251.011 122.518 251.251 122.618 251.571 122.658C251.911 122.678 252.221 122.688 252.501 122.688L252.591 122.808L252.651 123.828L252.621 123.948C252.281 123.908 251.891 123.878 251.451 123.858C251.011 123.838 250.601 123.828 250.221 123.828C249.661 123.828 249.101 123.828 248.541 123.828C247.981 123.848 247.451 123.878 246.951 123.918L246.771 123.618ZM246.771 120.378C246.831 120.278 246.891 120.158 246.951 120.018C247.031 119.878 247.081 119.708 247.101 119.508L247.251 116.958H246.981C246.361 116.958 245.751 116.998 245.151 117.078C244.551 117.158 244.011 117.308 243.531 117.528C243.051 117.748 242.661 118.058 242.361 118.458C242.061 118.858 241.911 119.378 241.911 120.018C241.911 120.558 242.041 120.988 242.301 121.308C242.581 121.628 242.951 121.788 243.411 121.788C243.751 121.788 244.091 121.748 244.431 121.668C244.791 121.568 245.121 121.448 245.421 121.308C245.721 121.168 245.991 121.018 246.231 120.858C246.471 120.678 246.651 120.518 246.771 120.378ZM259.329 112.638C259.789 111.758 260.419 111.028 261.219 110.448C262.019 109.868 262.959 109.578 264.039 109.578C264.659 109.578 265.269 109.658 265.869 109.818C266.469 109.978 267.009 110.228 267.489 110.568C267.989 110.908 268.399 111.348 268.719 111.888C269.059 112.408 269.279 113.028 269.379 113.748C269.439 114.268 269.469 114.818 269.469 115.398C269.489 115.978 269.499 116.558 269.499 117.138C269.519 117.818 269.529 118.448 269.529 119.028C269.529 119.588 269.529 120.208 269.529 120.888C269.529 121.348 269.579 121.698 269.679 121.938C269.799 122.158 269.939 122.308 270.099 122.388C270.319 122.508 270.549 122.588 270.789 122.628C271.049 122.668 271.339 122.688 271.659 122.688L271.749 122.808L271.809 123.828L271.749 123.948C271.329 123.908 270.859 123.878 270.339 123.858C269.839 123.838 269.349 123.828 268.869 123.828C268.389 123.828 267.909 123.828 267.429 123.828C266.949 123.848 266.499 123.878 266.079 123.918L265.869 123.318C265.929 123.058 265.979 122.668 266.019 122.148C266.079 121.628 266.119 121.208 266.139 120.888C266.179 120.128 266.209 119.418 266.229 118.758C266.249 118.098 266.259 117.508 266.259 116.988C266.259 116.528 266.249 116.028 266.229 115.488C266.209 114.948 266.139 114.478 266.019 114.078C265.859 113.438 265.529 112.968 265.029 112.668C264.549 112.348 263.989 112.188 263.349 112.188C262.749 112.188 262.199 112.298 261.699 112.518C261.199 112.738 260.769 113.008 260.409 113.328C260.069 113.628 259.799 113.948 259.599 114.288C259.399 114.628 259.299 114.928 259.299 115.188V118.278C259.299 118.678 259.299 119.008 259.299 119.268C259.299 119.508 259.299 119.718 259.299 119.898C259.319 120.078 259.329 120.248 259.329 120.408C259.349 120.548 259.369 120.708 259.389 120.888C259.429 121.308 259.509 121.628 259.629 121.848C259.769 122.048 259.919 122.218 260.079 122.358C260.239 122.518 260.429 122.618 260.649 122.658C260.869 122.678 261.129 122.688 261.429 122.688L261.579 122.838L261.639 123.828L261.579 123.948C261.439 123.948 261.229 123.938 260.949 123.918C260.669 123.898 260.369 123.878 260.049 123.858C259.729 123.858 259.429 123.848 259.149 123.828C258.869 123.828 258.659 123.828 258.519 123.828H256.869C256.729 123.828 256.509 123.828 256.209 123.828C255.929 123.848 255.629 123.858 255.309 123.858C255.009 123.878 254.709 123.898 254.409 123.918C254.129 123.938 253.919 123.948 253.779 123.948L253.749 123.828L253.809 122.808L253.899 122.688C254.219 122.688 254.499 122.678 254.739 122.658C254.999 122.618 255.209 122.518 255.369 122.358C255.509 122.218 255.639 122.038 255.759 121.818C255.879 121.598 255.959 121.288 255.999 120.888C256.019 120.748 256.029 120.608 256.029 120.468C256.049 120.328 256.059 120.178 256.059 120.018C256.079 119.858 256.089 119.668 256.089 119.448C256.089 119.228 256.089 118.958 256.089 118.638V115.548C256.089 115.168 256.089 114.848 256.089 114.588C256.089 114.328 256.079 114.098 256.059 113.898C256.059 113.698 256.049 113.518 256.029 113.358C256.029 113.198 256.019 113.028 255.999 112.848C255.959 112.648 255.899 112.458 255.819 112.278C255.739 112.098 255.669 111.978 255.609 111.918C255.409 111.658 255.159 111.508 254.859 111.468C254.559 111.428 254.249 111.408 253.929 111.408L253.809 111.288V110.268L253.929 110.178H255.459C255.919 110.178 256.409 110.178 256.929 110.178C257.469 110.158 257.939 110.118 258.339 110.058L259.389 109.908L259.569 110.478C259.409 110.698 259.309 111.008 259.269 111.408C259.249 111.788 259.239 112.178 259.239 112.578L259.329 112.638Z" fill="#E6E6E6"/>
</svg>
